<svg width="960" height="720" viewBox="0 0 960 720" fill="none" xmlns="http://www.w3.org/2000/svg">
  <rect width="960" height="720" rx="48" fill="url(#paint0_linear)"/>
  <g fill="white" opacity="0.2">
    <circle cx="200" cy="180" r="120"/>
    <circle cx="760" cy="200" r="160"/>
    <circle cx="480" cy="520" r="200"/>
  </g>
  <g stroke="white" stroke-width="8" stroke-linecap="round" stroke-linejoin="round">
    <path d="M280 460L320 340H640L680 460"/>
    <path d="M360 240C360 182.981 406.981 136 464 136H496C553.019 136 600 182.981 600 240V340H360V240Z"/>
    <path d="M400 520H560"/>
    <path d="M440 580H520"/>
    <path d="M520 276H560"/>
    <path d="M400 276H440"/>
    <path d="M440 304H520"/>
  </g>
  <g transform="translate(120 520)">
    <rect x="0" y="0" width="280" height="120" rx="24" fill="white" opacity="0.85"/>
    <text x="140" y="52" text-anchor="middle" font-family="'Inter', sans-serif" font-size="28" font-weight="700" fill="#1E1B4B">Junior UTC</text>
    <text x="140" y="90" text-anchor="middle" font-family="'Inter', sans-serif" font-size="20" fill="#312E81">Project Leadership</text>
  </g>
  <defs>
    <linearGradient id="paint0_linear" x1="80" y1="40" x2="900" y2="700" gradientUnits="userSpaceOnUse">
      <stop stop-color="#312E81"/>
      <stop offset="1" stop-color="#4F46E5"/>
    </linearGradient>
  </defs>
</svg>
